ply
format ascii 1.0
element vertex 72
property float x
property float y
property float z
element face 108
property list uchar int vertex_indices
end_header
-0.995 0.150 0.000
0.795 0.150 0.000
0.795 1.950 0.000
-0.995 1.950 0.000
-0.995 0.150 1.200
0.795 0.150 1.200
0.795 1.950 1.200
-0.995 1.950 1.200
1.415 2.380 0.000
2.985 2.380 0.000
2.985 3.460 0.000
1.415 3.460 0.000
1.415 2.380 1.200
2.985 2.380 1.200
2.985 3.460 1.200
1.415 3.460 1.200
-2.570 5.220 0.000
0.610 5.220 0.000
0.610 6.000 0.000
-2.570 6.000 0.000
-2.570 5.220 1.200
0.610 5.220 1.200
0.610 6.000 1.200
-2.570 6.000 1.200
0.090 4.370 0.000
1.470 4.370 0.000
1.470 4.730 0.000
0.090 4.730 0.000
0.090 4.370 1.200
1.470 4.370 1.200
1.470 4.730 1.200
0.090 4.730 1.200
-2.275 3.945 0.000
-0.985 3.945 0.000
-0.985 4.135 0.000
-2.275 4.135 0.000
-2.275 3.945 1.200
-0.985 3.945 1.200
-0.985 4.135 1.200
-2.275 4.135 1.200
-0.270 6.295 0.000
1.770 6.295 0.000
1.770 6.605 0.000
-0.270 6.605 0.000
-0.270 6.295 1.200
1.770 6.295 1.200
1.770 6.605 1.200
-0.270 6.605 1.200
1.350 1.985 0.000
2.230 1.985 0.000
2.230 2.095 0.000
1.350 2.095 0.000
1.350 1.985 1.200
2.230 1.985 1.200
2.230 2.095 1.200
1.350 2.095 1.200
-3.000 6.204 0.000
3.000 6.204 0.000
3.000 6.304 0.000
-3.000 6.304 0.000
-3.000 6.204 2.000
3.000 6.204 2.000
3.000 6.304 2.000
-3.000 6.304 2.000
-3.500 0.000 -0.020
3.500 0.000 -0.020
3.500 6.254 -0.020
-3.500 6.254 -0.020
-3.500 0.000 0.000
3.500 0.000 0.000
3.500 6.254 0.000
-3.500 6.254 0.000
3 0 1 2
3 0 2 3
3 4 6 5
3 4 7 6
3 0 4 5
3 0 5 1
3 1 5 6
3 1 6 2
3 2 6 7
3 2 7 3
3 3 7 4
3 3 4 0
3 8 9 10
3 8 10 11
3 12 14 13
3 12 15 14
3 8 12 13
3 8 13 9
3 9 13 14
3 9 14 10
3 10 14 15
3 10 15 11
3 11 15 12
3 11 12 8
3 16 17 18
3 16 18 19
3 20 22 21
3 20 23 22
3 16 20 21
3 16 21 17
3 17 21 22
3 17 22 18
3 18 22 23
3 18 23 19
3 19 23 20
3 19 20 16
3 24 25 26
3 24 26 27
3 28 30 29
3 28 31 30
3 24 28 29
3 24 29 25
3 25 29 30
3 25 30 26
3 26 30 31
3 26 31 27
3 27 31 28
3 27 28 24
3 32 33 34
3 32 34 35
3 36 38 37
3 36 39 38
3 32 36 37
3 32 37 33
3 33 37 38
3 33 38 34
3 34 38 39
3 34 39 35
3 35 39 36
3 35 36 32
3 40 41 42
3 40 42 43
3 44 46 45
3 44 47 46
3 40 44 45
3 40 45 41
3 41 45 46
3 41 46 42
3 42 46 47
3 42 47 43
3 43 47 44
3 43 44 40
3 48 49 50
3 48 50 51
3 52 54 53
3 52 55 54
3 48 52 53
3 48 53 49
3 49 53 54
3 49 54 50
3 50 54 55
3 50 55 51
3 51 55 52
3 51 52 48
3 56 57 58
3 56 58 59
3 60 62 61
3 60 63 62
3 56 60 61
3 56 61 57
3 57 61 62
3 57 62 58
3 58 62 63
3 58 63 59
3 59 63 60
3 59 60 56
3 64 65 66
3 64 66 67
3 68 70 69
3 68 71 70
3 64 68 69
3 64 69 65
3 65 69 70
3 65 70 66
3 66 70 71
3 66 71 67
3 67 71 68
3 67 68 64
