ply
format ascii 1.0
element vertex 123
property float x
property float y
property float z
property uchar red
property uchar green
property uchar blue
end_header
-2.925 3.375 0.725 255 41 0
-2.925 5.325 0.575 196 0 0
-2.775 3.975 0.125 196 0 0
-2.775 4.275 0.425 183 0 0
-2.625 3.375 0.275 249 0 0
-2.625 3.375 0.425 255 78 0
-2.625 3.375 1.025 255 18 0
-2.625 3.525 0.425 238 0 0
-2.625 4.125 0.275 223 0 0
-2.625 4.125 0.425 225 0 0
-2.625 4.725 -0.025 189 0 0
-2.475 4.875 0.425 175 0 0
-2.475 5.025 0.725 173 0 0
-2.325 1.875 0.575 189 0 0
-2.325 3.975 0.875 255 18 0
-2.325 4.125 0.725 228 0 0
-2.325 4.275 0.275 194 0 0
-2.175 2.175 0.125 175 0 0
-2.175 4.125 0.875 238 0 0
-2.025 3.975 0.875 196 0 0
-2.025 5.025 -0.025 189 0 0
-2.025 5.175 0.275 178 0 0
-1.875 5.475 -0.025 175 0 0
-1.725 2.025 0.125 215 0 0
-1.575 1.575 1.175 204 0 0
-1.575 2.025 1.175 207 0 0
-1.575 2.175 1.025 199 0 0
-1.425 0.675 -0.025 204 0 0
-1.425 2.025 -0.025 189 0 0
-1.425 2.025 1.025 173 0 0
-1.425 2.325 0.425 255 91 0
-1.275 2.175 1.025 173 0 0
-1.125 0.675 -0.025 207 0 0
-0.975 4.725 0.275 244 0 0
-0.825 1.275 0.575 165 0 0
-0.825 2.175 1.325 175 0 0
-0.825 4.275 0.275 255 26 0
-0.675 2.025 1.175 255 249 0
-0.675 2.325 -0.025 196 0 0
-0.675 2.325 1.175 255 255 81
-0.675 2.475 1.325 212 0 0
-0.675 2.775 -0.025 165 0 0
-0.675 3.975 0.125 255 128 0
-0.525 0.675 -0.025 255 41 0
-0.525 0.675 0.125 202 0 0
-0.525 0.825 -0.025 255 41 0
-0.525 1.875 1.175 255 91 0
-0.525 2.025 1.175 255 255 255
-0.525 2.475 1.175 212 0 0
-0.375 0.675 -0.025 255 57 0
-0.375 0.675 0.125 207 0 0
-0.375 1.875 1.175 255 146 0
-0.375 2.025 1.025 255 191 0
-0.375 2.175 1.025 223 0 0
-0.375 2.325 0.125 189 0 0
-0.225 0.675 -0.025 255 255 18
-0.225 1.875 0.875 207 0 0
-0.225 1.875 1.025 255 39 0
-0.225 2.025 1.025 255 81 0
-0.225 2.025 1.325 215 0 0
-0.225 2.325 0.875 186 0 0
-0.225 2.325 1.025 236 0 0
-0.225 2.325 1.175 255 49 0
-0.225 2.625 0.125 186 0 0
-0.225 2.925 0.725 189 0 0
-0.075 2.175 1.025 255 10 0
-0.075 2.325 0.875 175 0 0
-0.075 2.325 1.175 244 0 0
-0.075 2.625 0.125 183 0 0
-0.075 3.075 0.275 165 0 0
-0.075 3.975 0.575 255 167 0
0.075 2.475 0.275 178 0 0
0.075 2.925 1.025 189 0 0
0.075 3.975 0.275 255 12 0
0.225 4.125 0.875 255 255 2
0.375 3.825 -0.025 255 255 18
0.525 3.825 -0.025 255 255 22
0.525 3.975 -0.025 255 230 0
0.675 2.325 0.725 173 0 0
0.675 2.475 0.275 170 0 0
0.675 3.975 -0.025 255 115 0
0.675 4.575 0.125 255 41 0
0.675 4.875 0.125 178 0 0
0.675 5.775 0.125 252 0 0
0.825 2.475 0.275 186 0 0
0.825 2.475 0.425 183 0 0
0.825 3.975 -0.025 255 251 0
0.825 4.575 0.275 217 0 0
0.825 4.725 0.125 255 78 0
0.975 0.375 -0.025 255 10 0
0.975 0.675 0.125 252 0 0
0.975 2.175 0.725 170 0 0
1.125 0.375 0.125 255 255 243
1.125 1.725 1.475 255 102 0
1.125 2.325 1.175 228 0 0
1.125 5.325 -0.025 255 2 0
1.275 0.225 -0.025 189 0 0
1.275 0.675 -0.025 181 0 0
1.275 0.825 0.575 170 0 0
1.275 1.425 1.475 196 0 0
1.275 1.575 1.325 189 0 0
1.275 1.575 1.475 204 0 0
1.275 1.725 1.325 220 0 0
1.275 2.175 1.025 173 0 0
1.275 2.325 -0.025 255 78 0
1.275 2.325 0.725 173 0 0
1.275 2.475 1.025 255 117 0
1.275 4.725 0.125 255 151 0
1.425 0.525 -0.025 212 0 0
1.425 2.175 0.425 189 0 0
1.575 2.325 -0.025 181 0 0
1.575 2.325 1.025 183 0 0
1.725 1.875 0.425 181 0 0
1.725 2.475 -0.025 189 0 0
1.725 3.075 0.875 170 0 0
1.725 3.975 0.875 255 15 0
1.875 1.725 0.275 207 0 0
1.875 2.175 0.125 255 91 0
1.875 2.925 0.875 178 0 0
2.025 1.725 0.575 181 0 0
2.025 2.325 1.175 170 0 0
2.025 4.275 0.425 244 0 0
2.475 3.225 1.325 220 0 0
