ply
format ascii 1.0
element vertex 126
property float x
property float y
property float z
property uchar red
property uchar green
property uchar blue
end_header
-2.775 3.225 0.425 241 0 0
-2.775 3.375 0.575 210 0 0
-2.775 4.125 0.575 202 0 0
-2.775 4.275 0.425 173 0 0
-2.625 3.225 0.425 194 0 0
-2.625 4.125 0.425 189 0 0
-2.625 4.725 -0.025 178 0 0
-2.475 3.525 0.425 173 0 0
-2.475 3.525 0.875 162 0 0
-2.475 4.125 -0.025 233 0 0
-2.325 1.875 0.575 173 0 0
-2.325 2.925 0.125 168 0 0
-2.325 3.675 0.125 225 0 0
-2.325 4.275 0.125 178 0 0
-2.325 4.575 0.725 191 0 0
-2.175 2.175 0.125 162 0 0
-2.175 4.125 0.725 204 0 0
-2.175 5.025 0.275 162 0 0
-2.175 5.175 0.425 165 0 0
-1.875 4.275 0.875 186 0 0
-1.725 1.725 1.325 170 0 0
-1.725 2.025 0.125 199 0 0
-1.725 4.425 -0.025 189 0 0
-1.725 4.425 0.725 196 0 0
-1.575 0.675 -0.025 181 0 0
-1.575 2.175 1.175 186 0 0
-1.425 2.025 -0.025 178 0 0
-1.425 2.325 0.425 255 73 0
-1.275 0.525 0.125 215 0 0
-1.275 0.975 0.575 165 0 0
-1.275 1.725 1.475 215 0 0
-1.275 3.525 0.125 168 0 0
-1.125 0.525 -0.025 157 0 0
-1.125 2.625 -0.025 154 0 0
-1.125 3.975 0.275 255 255 58
-1.125 4.125 -0.025 246 0 0
-0.975 0.375 -0.025 215 0 0
-0.975 0.675 -0.025 255 123 0
-0.975 0.825 0.275 165 0 0
-0.975 3.975 0.125 220 0 0
-0.825 2.025 1.025 173 0 0
-0.825 2.475 0.425 186 0 0
-0.675 0.525 -0.025 204 0 0
-0.675 0.675 -0.025 255 196 0
-0.675 2.025 1.025 162 0 0
-0.675 2.025 1.175 255 199 0
-0.675 2.025 1.325 160 0 0
-0.675 2.475 1.325 199 0 0
-0.675 4.125 0.125 255 12 0
-0.525 0.675 0.125 191 0 0
-0.525 2.025 1.025 255 102 0
-0.525 2.025 1.175 255 212 0
-0.525 2.475 1.175 191 0 0
-0.525 2.475 1.325 199 0 0
-0.375 0.675 0.125 196 0 0
-0.375 1.875 1.175 255 255 255
-0.375 2.175 0.875 189 0 0
-0.375 3.225 0.425 154 0 0
-0.225 2.325 0.875 173 0 0
-0.225 2.925 0.725 175 0 0
-0.075 2.325 0.875 162 0 0
-0.075 2.625 0.125 255 83 0
-0.075 4.125 -0.025 238 0 0
0.075 2.175 0.875 183 0 0
0.075 2.325 1.025 186 0 0
0.075 2.775 0.575 175 0 0
0.225 1.725 0.725 165 0 0
0.225 2.175 1.025 189 0 0
0.225 2.625 1.175 168 0 0
0.225 4.575 -0.025 181 0 0
0.375 2.175 0.575 160 0 0
0.525 0.825 -0.025 173 0 0
0.525 2.175 1.025 160 0 0
0.525 4.125 -0.025 238 0 0
0.525 4.425 -0.025 255 15 0
0.675 2.325 0.725 160 0 0
0.675 2.625 0.425 157 0 0
0.675 4.125 0.125 246 0 0
0.675 5.775 0.425 170 0 0
0.825 0.375 -0.025 255 5 0
0.825 1.875 1.025 165 0 0
0.825 1.875 1.175 165 0 0
0.825 1.875 1.475 196 0 0
0.825 2.475 0.275 173 0 0
0.825 2.475 0.425 173 0 0
0.825 4.725 0.125 255 36 0
0.975 1.725 1.475 183 0 0
0.975 2.175 0.725 160 0 0
1.125 0.225 -0.025 255 54 0
1.125 0.375 0.125 255 57 0
1.125 1.725 1.475 168 0 0
1.125 5.025 0.575 228 0 0
1.275 1.575 1.475 189 0 0
1.275 2.025 0.575 160 0 0
1.275 2.325 -0.025 154 0 0
1.275 2.325 0.875 160 0 0
1.275 2.475 1.025 255 89 0
1.275 4.725 0.125 255 110 0
1.425 1.425 1.475 189 0 0
1.425 2.025 1.325 194 0 0
1.425 2.175 0.425 175 0 0
1.425 2.175 0.725 175 0 0
1.425 2.325 -0.025 165 0 0
1.425 3.375 1.175 168 0 0
1.425 4.875 0.425 255 12 0
1.575 1.575 1.175 165 0 0
1.575 2.325 1.025 170 0 0
1.575 4.725 -0.025 183 0 0
1.575 5.175 0.125 255 120 0
1.725 1.875 1.325 165 0 0
1.725 2.625 -0.025 165 0 0
1.725 2.925 0.725 170 0 0
1.725 3.075 0.875 157 0 0
1.725 5.025 0.125 255 5 0
1.875 1.725 0.275 191 0 0
1.875 2.175 -0.025 170 0 0
1.875 2.175 0.125 160 0 0
1.875 2.625 -0.025 255 81 0
1.875 3.375 1.025 181 0 0
1.875 4.575 0.875 252 0 0
2.025 2.325 1.325 160 0 0
2.025 4.275 0.275 204 0 0
2.175 2.475 0.125 170 0 0
2.175 3.825 1.025 194 0 0
2.475 2.475 -0.025 165 0 0
2.625 2.175 0.275 173 0 0
