ply
format ascii 1.0
element vertex 96
property float x
property float y
property float z
property uchar red
property uchar green
property uchar blue
end_header
-2.925 3.375 0.725 255 102 0
-2.925 5.325 0.575 238 0 0
-2.775 3.975 0.125 236 0 0
-2.625 3.375 0.275 255 44 0
-2.625 3.375 0.425 255 146 0
-2.625 3.375 1.025 255 73 0
-2.625 3.525 0.425 255 33 0
-2.625 4.125 0.275 255 12 0
-2.475 4.875 0.425 212 0 0
-2.475 5.025 0.725 207 0 0
-2.325 3.975 0.875 255 73 0
-2.325 4.125 0.725 255 20 0
-2.325 4.275 0.275 231 0 0
-2.175 4.125 0.875 255 33 0
-2.025 3.975 0.875 236 0 0
-2.025 5.025 -0.025 225 0 0
-2.025 5.175 0.275 212 0 0
-1.875 5.475 -0.025 210 0 0
-1.575 1.575 1.175 246 0 0
-1.575 2.025 1.175 249 0 0
-1.575 2.175 1.025 241 0 0
-1.425 0.675 -0.025 244 0 0
-1.425 2.025 1.025 207 0 0
-1.275 2.175 1.025 207 0 0
-1.125 0.675 -0.025 249 0 0
-0.975 4.725 0.275 255 39 0
-0.825 1.275 0.575 199 0 0
-0.825 2.175 1.325 212 0 0
-0.825 4.275 0.275 255 83 0
-0.675 2.325 -0.025 236 0 0
-0.675 2.325 1.175 255 255 255
-0.675 2.775 -0.025 199 0 0
-0.675 3.975 0.125 255 207 0
-0.525 0.675 -0.025 255 102 0
-0.525 0.825 -0.025 255 102 0
-0.525 1.875 1.175 255 162 0
-0.525 2.025 1.175 160 0 0
-0.375 0.675 -0.025 255 123 0
-0.375 0.825 0.125 238 0 0
-0.375 2.025 1.025 255 255 46
-0.375 2.025 1.175 255 154 0
-0.375 2.175 1.025 255 12 0
-0.375 2.325 0.125 228 0 0
-0.225 0.675 -0.025 255 255 180
-0.225 0.825 -0.025 255 107 0
-0.225 1.875 0.875 249 0 0
-0.225 1.875 1.025 255 99 0
-0.225 2.025 1.025 255 151 0
-0.225 2.025 1.325 255 2 0
-0.225 2.325 1.025 255 28 0
-0.225 2.325 1.175 255 112 0
-0.225 2.625 0.125 225 0 0
-0.075 2.175 1.025 255 62 0
-0.075 2.325 1.175 255 39 0
-0.075 3.075 0.275 199 0 0
-0.075 3.975 0.575 255 254 0
0.075 2.475 0.275 215 0 0
0.075 2.925 1.025 225 0 0
0.075 3.975 0.275 255 68 0
0.225 4.125 0.875 255 255 164
0.375 3.825 -0.025 255 255 180
0.525 3.825 -0.025 255 255 188
0.525 3.975 -0.025 255 255 113
0.675 2.475 0.275 204 0 0
0.675 3.975 -0.025 255 193 0
0.675 4.575 0.125 255 102 0
0.675 4.875 0.125 215 0 0
0.675 5.775 0.125 255 49 0
0.825 3.975 -0.025 255 255 156
0.825 4.575 0.275 255 5 0
0.975 0.375 -0.025 255 62 0
0.975 0.675 0.125 255 47 0
1.125 0.375 0.125 255 117 0
1.125 1.725 1.475 202 0 0
1.125 2.325 1.175 255 20 0
1.125 5.325 -0.025 255 54 0
1.275 0.225 -0.025 225 0 0
1.275 0.675 -0.025 215 0 0
1.275 0.825 0.575 204 0 0
1.275 1.425 1.475 236 0 0
1.275 1.575 1.325 228 0 0
1.275 1.725 1.325 255 10 0
1.275 2.175 1.025 210 0 0
1.275 2.325 -0.025 194 0 0
1.275 2.325 0.725 207 0 0
1.425 0.525 -0.025 254 0 0
1.575 2.325 -0.025 217 0 0
1.725 1.875 0.425 215 0 0
1.725 2.475 -0.025 225 0 0
1.725 3.975 0.875 255 70 0
1.875 2.175 0.125 199 0 0
1.875 2.925 0.875 215 0 0
2.025 1.725 0.575 217 0 0
2.025 2.325 1.175 204 0 0
2.025 4.275 0.425 255 39 0
2.475 3.225 1.325 255 10 0
